<?xml version="1.0" encoding="utf-8"?>
<!-- Generator: Adobe Illustrator 27.8.0, SVG Export Plug-In . SVG Version: 6.00 Build 0)  -->
<svg version="1.1" id="Layer_1" shape-rendering="crispEdges"
	 xmlns="http://www.w3.org/2000/svg" xmlns:xlink="http://www.w3.org/1999/xlink" x="0px" y="0px" viewBox="0 0 43 46"
	 style="enable-background:new 0 0 43 46;" xml:space="preserve">
<style type="text/css">
	.st0{fill:#1A1C1D;}
	.st1{fill:#712915;}
	.st2{fill:#391004;}
	.st3{fill:#AE4A2B;}
	.st4{fill:#5C2717;}
	.st5{fill:#F4942C;}
	.st6{fill:#E67830;}
	.st7{fill:#FFE000;}
	.st8{fill:#FFFF8A;}
	.st9{fill:#CE5F25;}
	.st10{stroke:#000000;}
	.st11{stroke:#712915;}
	.st12{stroke:#391004;}
	.st13{stroke:#AE4A2B;}
	.st14{stroke:#5C2717;}
	.st15{stroke:#F4942C;}
	.st16{stroke:#E67830;}
	.st17{stroke:#FFE000;}
	.st18{stroke:#FFFF8A;}
	.st19{stroke:#CE5F25;}
</style>
<path class="st10" d="M18,0.5h4 M17,1.5h1 M22,1.5h1 M17,2.5h1 M22,2.5h1 M18,3.5h1 M23,3.5h1 M18,4.5h1 M23,4.5h1 M19,5.5h1
	 M23,5.5h1 M19,6.5h1 M23,6.5h1 M19,7.5h1 M23,7.5h2 M17,8.5h2 M23,8.5h1 M25,8.5h1 M16,9.5h1 M26,9.5h1 M15,10.5h1 M27,10.5h1
	 M14,11.5h1 M28,11.5h1 M14,12.5h1 M28,12.5h1 M13,13.5h1 M29,13.5h1 M13,14.5h1 M29,14.5h1 M12,15.5h1 M30,15.5h1 M12,16.5h1
	 M30,16.5h1 M12,17.5h1 M30,17.5h1 M12,18.5h1 M30,18.5h1 M12,19.5h1 M30,19.5h1 M12,20.5h1 M16,20.5h1 M21,20.5h1 M30,20.5h1
	 M11,21.5h1 M15,21.5h2 M20,21.5h2 M31,21.5h1 M11,22.5h1 M31,22.5h1 M11,23.5h1 M31,23.5h1 M11,24.5h1 M31,24.5h1 M10,25.5h1
	 M32,25.5h1 M10,26.5h1 M32,26.5h1 M10,27.5h1 M13,27.5h1 M28,27.5h1 M32,27.5h1 M9,28.5h1 M13,28.5h1 M28,28.5h1 M33,28.5h1
	 M9,29.5h1 M13,29.5h1 M28,29.5h1 M33,29.5h1 M8,30.5h1 M13,30.5h1 M28,30.5h1 M34,30.5h1 M8,31.5h1 M13,31.5h1 M28,31.5h1 M34,31.5
	h1 M7,32.5h1 M13,32.5h1 M28,32.5h1 M35,32.5h1 M6,33.5h1 M13,33.5h1 M28,33.5h1 M36,33.5h1 M5,34.5h1 M12,34.5h1 M27,34.5h1
	 M37,34.5h1 M3,35.5h2 M12,35.5h1 M27,35.5h1 M38,35.5h2 M1,36.5h2 M12,36.5h1 M27,36.5h1 M40,36.5h2 M0,37.5h1 M12,37.5h1 M27,37.5
	h1 M42,37.5h1 M1,38.5h1 M11,38.5h1 M26,38.5h1 M28,38.5h2 M41,38.5h1 M2,39.5h2 M10,39.5h2 M26,39.5h1 M30,39.5h3 M39,39.5h2
	 M4,40.5h6 M11,40.5h1 M25,40.5h1 M33,40.5h6 M11,41.5h1 M24,41.5h1 M10,42.5h1 M23,42.5h1 M10,43.5h1 M21,43.5h2 M11,44.5h1
	 M18,44.5h3 M12,45.5h6"/>
<path class="st11" d="M18,1.5h4 M18,2.5h3"/>
<path class="st12" d="M21,2.5h1 M21,3.5h2 M22,4.5h1 M22,5.5h1 M22,6.5h1 M22,7.5h1 M22,8.5h1 M16,19.5h1 M21,19.5h1 M15,20.5h1
	 M20,20.5h1"/>
<path class="st13" d="M19,3.5h2"/>
<path class="st14" d="M19,4.5h3 M20,5.5h2 M20,6.5h2 M20,7.5h2 M20,8.5h2 M15,22.5h2 M20,22.5h2"/>
<path class="st15" d="M19,8.5h1 M23,9.5h3 M24,10.5h3 M25,11.5h3 M25,12.5h3 M26,13.5h3 M26,14.5h3 M27,15.5h3 M27,16.5h3 M27,17.5
	h3 M27,18.5h3 M28,19.5h2 M28,20.5h2 M28,21.5h3 M28,22.5h3 M28,23.5h3 M28,24.5h3 M28,25.5h4 M27,26.5h5 M27,27.5h1 M29,27.5h3
	 M27,28.5h1 M30,28.5h3 M12,29.5h1 M27,29.5h1 M30,29.5h3 M12,30.5h1 M27,30.5h1 M31,30.5h3 M11,31.5h2 M27,31.5h1 M31,31.5h3
	 M11,32.5h1 M27,32.5h1 M32,32.5h3 M10,33.5h2 M26,33.5h2 M33,33.5h3 M9,34.5h2 M26,34.5h1 M34,34.5h3 M7,35.5h3 M26,35.5h1
	 M36,35.5h2 M5,36.5h3 M26,36.5h1 M38,36.5h2 M1,37.5h5 M25,37.5h2 M2,38.5h1 M25,38.5h1 M24,39.5h2 M23,40.5h2 M22,41.5h2 M11,42.5
	h1 M20,42.5h3 M11,43.5h2 M17,43.5h4 M12,44.5h6"/>
<path class="st16" d="M24,8.5h1 M20,25.5h1 M17,26.5h3 M29,28.5h1 M29,29.5h1 M29,30.5h2 M30,31.5h1 M12,32.5h1 M30,32.5h2 M12,33.5
	h1 M31,33.5h2 M11,34.5h1 M32,34.5h2 M10,35.5h2 M33,35.5h3 M8,36.5h4 M35,36.5h3 M6,37.5h6 M37,37.5h5 M3,38.5h8 M40,38.5h1
	 M4,39.5h6"/>
<path class="st17" d="M17,9.5h6 M16,10.5h2 M19,10.5h5 M15,11.5h2 M18,11.5h7 M15,12.5h1 M17,12.5h8 M14,13.5h2 M17,13.5h9 M14,14.5
	h1 M16,14.5h10 M13,15.5h2 M16,15.5h11 M13,16.5h2 M16,16.5h11 M13,17.5h14 M13,18.5h14 M13,19.5h2 M17,19.5h3 M22,19.5h6 M13,20.5
	h2 M17,20.5h3 M22,20.5h6 M12,21.5h3 M17,21.5h3 M22,21.5h6 M12,22.5h3 M17,22.5h3 M22,22.5h6 M12,23.5h16 M12,24.5h16 M11,25.5h9
	 M21,25.5h7 M11,26.5h6 M20,26.5h7 M11,27.5h2 M14,27.5h13 M10,28.5h3 M14,28.5h13 M10,29.5h2 M14,29.5h13 M9,30.5h3 M14,30.5h13
	 M9,31.5h2 M14,31.5h13 M8,32.5h3 M14,32.5h4 M19,32.5h8 M7,33.5h2 M14,33.5h4 M19,33.5h7 M6,34.5h1 M13,34.5h5 M19,34.5h7 M13,35.5
	h5 M19,35.5h7 M3,36.5h2 M13,36.5h4 M18,36.5h8 M13,37.5h4 M18,37.5h7 M12,38.5h4 M17,38.5h8 M12,39.5h3 M16,39.5h8 M12,40.5h10
	 M12,41.5h8 M13,42.5h4"/>
<path class="st18" d="M18,10.5h1 M17,11.5h1 M16,12.5h1 M16,13.5h1 M15,14.5h1 M15,15.5h1 M15,16.5h1 M15,19.5h1 M20,19.5h1
	 M18,32.5h1 M9,33.5h1 M18,33.5h1 M7,34.5h2 M18,34.5h1 M5,35.5h2 M18,35.5h1 M17,36.5h1 M17,37.5h1 M16,38.5h1 M15,39.5h1 M22,40.5
	h1 M20,41.5h2 M12,42.5h1 M17,42.5h3 M13,43.5h4"/>
<path class="st19" d="M29,31.5h1 M29,32.5h1 M29,33.5h2 M28,34.5h4 M28,35.5h5 M28,36.5h7 M28,37.5h9 M30,38.5h10 M33,39.5h6"/>
</svg>
