<?xml version="1.0" encoding="utf-8"?>
<!-- Generator: Adobe Illustrator 27.7.0, SVG Export Plug-In . SVG Version: 6.00 Build 0)  -->
<svg version="1.1" xmlns="http://www.w3.org/2000/svg" xmlns:xlink="http://www.w3.org/1999/xlink" x="0px" y="0px"
	 viewBox="0 0 296 112" style="enable-background:new 0 0 296 112;" xml:space="preserve">
<style type="text/css">
	.st0{fill:#FFFFFF;}
</style>
<g id="Layer_1">
</g>
<g id="Layer_2">
	<path d="M74.94,111.73H70.1c-38.61,0-69.78-16.31-69.78-52.5v-6.46c0-36.83,31.18-52.5,69.78-52.5h4.85
		c40.38,0,69.3,14.7,69.3,44.42h-34.73c-0.16-8.08-10.34-15.35-34.57-15.35H70.1c-23.42,0-35.05,8.4-35.05,23.42v6.46
		c0,15.51,11.63,23.42,35.05,23.42h4.85c24.07,0,35.21-7.91,35.21-15.83h34.73C144.89,95.41,115.33,111.73,74.94,111.73z
		 M295.68,77.8c0,21.16-21.97,33.92-63.32,33.92h-4.84c-43.61,0-65.58-12.76-65.58-38.93v-1.62h32.14v1.62
		c0,11.95,11.95,13.73,33.43,13.73h4.84c19.06,0,30.69-1.78,30.69-7.91V77c0-6.46-10.34-7.43-44.42-9.53
		c-36.5-2.26-55.4-11.31-55.4-32.14v-0.97c0-22.29,24.39-34.08,62.99-34.08h4.85c37.96,0,62.35,11.47,62.35,37.63v2.1h-32.14v-2.1
		c0-10.66-12.6-12.44-30.2-12.44h-4.85c-18.74,0-30.37,1.78-30.37,7.27v0.97c0,6.94,7.11,7.59,44.58,10.5
		c39.25,3.07,55.24,12.44,55.24,31.98V77.8z"/>
</g>
</svg>
